<svg xmlns="http://www.w3.org/2000/svg" viewBox="0 0 1200 811" fill="none">
  <path fill="#ececec" d="M577.5-.5h44c85.8 10.1 150.3 52.5 193.5 127 8 15.7 14.7 32 20 49 2.2 11.2-1.3 20-10.5 26.5-6.5 2.7-13.2 4.9-20 6.5-17-81.8-65-136.3-144-163.5C575.1 22.7 502.3 43.6 442 107.5c-25 29.3-40.8 63-47.5 101-6.8-1.7-13.5-3.8-20-6.5-9.2-6.5-12.7-15.3-10.5-26.5 26.8-83.8 82-139.3 165.5-166.5 15.9-4.5 31.9-7.7 48-9.5z"/>
  <path fill="#c1c0c0" d="M804.5 208.5c-11.2 4.5-22.9 7.8-35 10-13.3-68.8-53-115-119-138.5-75.1-19.3-137.6.5-187.5 59.5-17.7 23.4-28.9 49.8-33.5 79-12.2-2-23.8-5.3-35-10 6.7-38.1 22.5-71.7 47.5-101C502.3 43.6 575.1 22.7 660.5 45c79.1 27.2 127.1 81.7 144 163.5z"/>
  <path fill="#919190" d="M769.5 218.5c-15.7 4.3-31.7 7.6-48 10 .7-1.2 1.8-1.9 3.5-2 2.5-.4 5-.7 7.5-1-5.5-41-25.5-72.8-60-95.5-55.7-31.6-109-28.2-160 10-26.5 23-42.2 51.8-47 86.5-12.3-1.8-24.3-4.5-36-8 4.6-29.2 15.8-55.6 33.5-79 49.9-59 112.4-78.8 187.5-59.5 66 23.5 105.7 69.7 119 138.5z"/>
  <path fill="#5c5b5b" d="M721.5 228.5c-9.3 1.7-18.6 2.7-28 3 1.1-.9 2.4-1.3 4 0-8.3-44.8-34.6-72.6-79-83.5-54.9-6.5-92.7 15.7-113.5 66.5-1.4 5.7-2.5 11.3-3.5 17 1.3-.2 2.3.1 3 1-13.1-.9-26.1-2.5-39-5 4.8-34.7 20.5-63.6 47-86.5 51-38.2 104.3-41.6 160-10 34.5 22.7 54.5 54.5 60 95.5-2.5.2-5 .6-7.5.5-1.7.1-2.8.8-3.5 2z"/>
  <path fill="#010101" d="M693.5 231.5c-31.1 4.3-62.5 6-94 5-31.8 1-63.5-.7-95-5-.7-.9-1.7-1.2-3-.5 1-5.7 2.1-11.3 3.5-17 20.8-50.8 58.6-73 113.5-66.5 44.4 10.9 70.7 38.7 79 83.5-1.6-.3-2.9 0-4 1z"/>
  <path fill="#010101" d="M668.5 253.5c.1 1.1.8 1.8 2 2 .9 0 1.6-.3 2-1 8.6.3 16.9 1.3 25 3-6.6 38-27.6 64.5-63 79.5-50.7 15.4-90.9 1.2-120.5-42.5-6.5-11.6-10.6-23.9-12.5-37 1.8-1 3.8-1.3 6-1 .6.6 1.4 1 2.5 1 3-.4 5.9-1.1 8.5-2 26.9-2.9 53.9-4.2 81-4 23 .1 46 .8 69 2z"/>
  <path fill="#434343" d="M668.5 253.5c1.5-.1 2.8.3 4 1-.4.6-1.1 1-2 1-1.2-.2-1.9-.9-2-2z"/>
  <path fill="#272626" d="M518.5 255.5c-2.6.9-5.5 1.6-8.5 2-1.1 0-1.9-.3-2.5-1 3.5-1 7.1-1.3 11 0z"/>
  <path fill="#5c5b5b" d="M501.5 257.5c1.9 13.1 6 25.4 12.5 37 29.6 43.7 69.8 57.9 120.5 42.5 35.4-15 56.4-41.5 63-79.5 12.3.2 24.3 1.9 36 5-10.9 60.7-46.2 98.9-106 114.5-54.2 9.3-99 -6.9-134.5-48.5-14.9-19.6-24.1-41.6-27.5-66 11.8-3.1 23.8-4.8 36-5z"/>
  <path fill="#919190" d="M465.5 262.5c3.4 24.4 12.6 46.4 27.5 66 35.5 41.6 80.3 57.8 134.5 48.5 59.8-15.6 95.1-53.8 106-114.5 12.2 1.5 24.2 3.8 36 7-12.3 66.1-49.6 111.6-112 136.5-63.1 20.4-120.1 9.8-171-31.8-31.4-28-50.4-62.8-57-105 11.7-3.2 23.7-5.5 36-7z"/>
  <path fill="#c1c0c0" d="M429.5 269.5c6.6 42.2 25.6 77 57 105 50.9 42 107.9 52.6 171 31.8 62.4-24.9 99.7-70.4 112-136.5 12.1 2.3 23.7 5.7 35 10-16.1 78.4-61.5 132.3-136 161.5-74.4 23.3-142.1 11-203-36-38-33.2-61.7-74.7-71-124 11.3-4.3 23-7.7 35-10z"/>
  <path fill="#ececec" d="M394.5 279.5c9.3 49.3 33 90.8 71 124 60.9 47 128.6 59.3 203 36 74.5-29.2 119.9-83.1 136-161.5 10.7 1.9 19.8 6.6 27.5 14 3.3 6.3 4.3 13 3 20-30.6 92-93.1 149.1-187.5 171.5-104.1 16-187.6-17.8-250.5-101.5-14.2-21.7-25.2-45-33-70-2.6-12 1.2-21.1 11.5-27.5 6.3-2.5 12.6-4.6 19-6.5z"/>
</svg>
