<?xml version="1.0" standalone="no"?>
<!DOCTYPE svg PUBLIC "-//W3C//DTD SVG 20010904//EN"
 "http://www.w3.org/TR/2001/REC-SVG-20010904/DTD/svg10.dtd">
<svg version="1.0" xmlns="http://www.w3.org/2000/svg"
 width="1024.000000pt" height="1024.000000pt" viewBox="0 0 1024.000000 1024.000000"
 preserveAspectRatio="xMidYMid meet">

<g transform="translate(0.000000,1024.000000) scale(0.100000,-0.100000)"
fill="#000000" stroke="none">
<path d="M4895 8279 c-375 -48 -754 -280 -995 -609 -67 -91 -166 -285 -200
-390 -11 -36 -29 -104 -38 -152 l-17 -87 -440 -3 c-429 -4 -442 -4 -510 -27
-175 -58 -309 -170 -384 -321 -76 -155 -71 1 -71 -2196 0 -1929 0 -1972 20
-2048 46 -179 163 -327 321 -404 171 -85 -77 -77 2484 -80 1655 -2 2302 0
2360 8 265 38 462 195 543 434 l27 81 0 2020 c0 1948 -1 2022 -19 2075 -81
239 -254 394 -497 445 -55 12 -156 15 -478 15 l-407 0 -13 77 c-23 139 -103
341 -186 474 -227 360 -627 621 -1050 684 -109 16 -336 18 -450 4z m499 -443
c194 -51 416 -181 537 -314 62 -68 141 -186 176 -262 32 -68 73 -184 73 -205
0 -13 -119 -15 -1065 -15 l-1065 0 6 28 c52 213 199 434 383 572 128 97 328
184 494 216 116 22 339 12 461 -20z m-1774 -1520 c0 -319 3 -344 47 -404 39
-52 94 -75 173 -70 84 4 138 37 169 100 20 42 21 59 21 361 l0 317 1085 0
1085 0 0 -293 c0 -330 6 -370 62 -424 47 -44 90 -63 143 -63 93 0 175 59 200
144 12 39 15 114 15 343 l0 293 403 0 c367 0 405 -2 442 -19 51 -23 111 -89
125 -138 8 -27 10 -585 8 -1978 -3 -1871 -4 -1941 -22 -1975 -26 -49 -64 -88
-111 -113 l-40 -22 -2305 0 -2305 0 -41 22 c-56 30 -109 94 -123 148 -8 31
-11 593 -11 1953 0 2094 -4 1967 59 2043 17 20 50 46 73 58 42 20 56 21 446
21 l402 0 0 -304z"/>
</g>
</svg>
