<?xml version="1.0" encoding="UTF-8"?>
<!DOCTYPE svg PUBLIC "-//W3C//DTD SVG 1.1//EN" "http://www.w3.org/Graphics/SVG/1.1/DTD/svg11.dtd">
<svg xmlns="http://www.w3.org/2000/svg" version="1.1" width="1536px" height="1024px" style="shape-rendering:geometricPrecision; text-rendering:geometricPrecision; image-rendering:optimizeQuality; fill-rule:evenodd; clip-rule:evenodd" xmlns:xlink="http://www.w3.org/1999/xlink">
<g><path style="opacity:0.061" fill="#fefdfd" d="M 222.5,357.5 C 227.717,360.382 233.384,362.215 239.5,363C 243.833,363.333 248.167,363.667 252.5,364C 255.717,366.435 259.217,368.269 263,369.5C 263.689,368.643 264.522,367.977 265.5,367.5C 267.125,370.067 269.291,372.067 272,373.5C 272.138,377.567 274.138,380.234 278,381.5C 278.483,382.448 278.649,383.448 278.5,384.5C 286.606,385.369 291.606,389.702 293.5,397.5C 300.013,404.839 305.513,412.839 310,421.5C 314.208,423.391 316.375,426.724 316.5,431.5C 317.725,433.958 319.225,436.292 321,438.5C 320.525,442.777 322.192,445.777 326,447.5C 326.081,450.81 327.581,453.143 330.5,454.5C 331.086,454.291 331.586,453.957 332,453.5C 332.333,450.833 332.667,448.167 333,445.5C 334.512,444.743 335.846,443.743 337,442.5C 339.262,438.936 340.595,434.936 341,430.5C 345.17,426.495 348.337,421.828 350.5,416.5C 358.549,405.117 368.383,395.45 380,387.5C 379.833,383.667 381.667,381.833 385.5,382C 390.495,377.67 396.162,374.67 402.5,373C 407.988,368.91 413.988,365.91 420.5,364C 425.116,364.271 429.116,362.937 432.5,360C 438.833,359.667 445.167,359.333 451.5,359C 452.731,357.033 453.731,357.199 454.5,359.5C 463.392,360.18 472.226,360.846 481,361.5C 481.75,360.874 482.584,360.374 483.5,360C 489.669,359.563 495.669,358.897 501.5,358C 510.968,362.685 520.968,365.352 531.5,366C 536.806,369.31 541.473,373.31 545.5,378C 549.167,379.667 552.833,381.333 556.5,383C 564.381,391.555 571.547,400.721 578,410.5C 579.154,411.743 580.488,412.743 582,413.5C 582.333,415.5 582.667,417.5 583,419.5C 585.34,424.014 588.006,428.347 591,432.5C 591.494,434.134 591.66,435.801 591.5,437.5C 594.85,437.665 598.183,437.498 601.5,437C 606.667,428.5 611.833,420 617,411.5C 620.636,409.363 624.136,407.029 627.5,404.5C 631.833,399.167 636.167,393.833 640.5,388.5C 642.637,387.132 644.97,386.132 647.5,385.5C 646.833,384.833 646.167,384.167 645.5,383.5C 645.833,383.167 646.167,382.833 646.5,382.5C 650.709,380.661 655.042,379.328 659.5,378.5C 659.351,377.448 659.517,376.448 660,375.5C 662.709,374.067 664.875,372.067 666.5,369.5C 667.719,370.263 668.719,371.263 669.5,372.5C 670.386,371.675 670.719,370.675 670.5,369.5C 672.199,369.66 673.866,369.494 675.5,369C 678.431,366.485 681.764,364.819 685.5,364C 691.287,362.925 696.954,361.592 702.5,360C 720.876,359.776 739.209,359.609 757.5,359.5C 761.5,359.667 765.5,359.833 769.5,360C 775.902,361.562 782.235,363.396 788.5,365.5C 789.5,364.833 790.5,364.167 791.5,363.5C 794.926,365.181 797.593,367.681 799.5,371C 807.057,373.703 814.057,377.536 820.5,382.5C 821.262,383.628 821.929,384.795 822.5,386C 828.947,389.521 835.28,393.188 841.5,397C 840.692,397.308 840.025,397.808 839.5,398.5C 842.726,404.36 846.226,410.027 850,415.5C 851.801,421.096 853.968,426.43 856.5,431.5C 859.839,433.008 862.339,435.342 864,438.5C 865.033,441.217 864.2,443.051 861.5,444C 863.699,445.697 866.032,447.197 868.5,448.5C 870.082,443.749 873.249,440.416 878,438.5C 881.122,428.292 885.288,418.625 890.5,409.5C 894.5,406.833 898.5,404.167 902.5,401.5C 904.739,397.237 907.906,393.903 912,391.5C 912.415,389.709 913.415,388.376 915,387.5C 915.186,385.1 915.686,382.766 916.5,380.5C 919.382,379.228 922.215,377.895 925,376.5C 926.085,377.293 927.252,377.96 928.5,378.5C 931.5,377.167 934.5,375.833 937.5,374.5C 938.452,372.955 938.785,371.288 938.5,369.5C 941.55,370.077 943.55,368.91 944.5,366C 957.316,366.043 969.649,364.043 981.5,360C 996.1,359.603 1010.6,359.436 1025,359.5C 1026.36,361.784 1027.86,361.951 1029.5,360C 1037.89,358.685 1045.89,359.685 1053.5,363C 1058.5,363.333 1063.5,363.667 1068.5,364C 1070.41,365.2 1071.74,366.867 1072.5,369C 1074.5,370.333 1076.5,371.667 1078.5,373C 1087.49,375.135 1094.15,380.135 1098.5,388C 1103.67,391.085 1108.67,394.419 1113.5,398C 1114.28,400.74 1114.78,403.574 1115,406.5C 1118.51,408.587 1121.84,410.92 1125,413.5C 1125.33,416.167 1125.67,418.833 1126,421.5C 1127.73,423.015 1129.23,424.682 1130.5,426.5C 1132.92,430.403 1135.08,434.403 1137,438.5C 1136.79,443.668 1137.96,448.334 1140.5,452.5C 1138.64,456.557 1137.97,460.891 1138.5,465.5C 1143.43,465.658 1144.1,466.825 1140.5,469C 1142.13,469.494 1143.8,469.66 1145.5,469.5C 1145.5,475.167 1145.5,480.833 1145.5,486.5C 1144.18,486.67 1143.01,486.337 1142,485.5C 1141.69,488.372 1141.19,491.205 1140.5,494C 1140.95,495.285 1141.62,496.452 1142.5,497.5C 1141.28,499.962 1140.62,502.629 1140.5,505.5C 1140.39,508.364 1140.89,511.03 1142,513.5C 1142.5,509.848 1142.67,506.182 1142.5,502.5C 1143.5,502.5 1144.5,502.5 1145.5,502.5C 1145.5,507.833 1145.5,513.167 1145.5,518.5C 1144.5,518.5 1143.5,518.5 1142.5,518.5C 1141.73,514.556 1141.06,514.723 1140.5,519C 1140.83,520.167 1141.17,521.333 1141.5,522.5C 1142.77,521.572 1144.1,521.405 1145.5,522C 1143.9,526.903 1142.9,532.07 1142.5,537.5C 1141.91,537.709 1141.41,538.043 1141,538.5C 1140.67,541.833 1140.33,545.167 1140,548.5C 1138.13,549.997 1137.13,551.997 1137,554.5C 1136.25,555.126 1135.42,555.626 1134.5,556C 1138.14,557.578 1138.31,559.411 1135,561.5C 1135.25,566.926 1132.75,570.426 1127.5,572C 1126.07,574.844 1124.57,577.678 1123,580.5C 1120.33,582.5 1117.67,584.5 1115,586.5C 1112.65,590.754 1111.15,595.421 1110.5,600.5C 1098.91,606.224 1087.91,613.057 1077.5,621C 1075.83,621.333 1074.17,621.667 1072.5,622C 1068.68,624.937 1065.01,627.937 1061.5,631C 1042.91,632.781 1024.41,632.281 1006,629.5C 1001.66,630.696 997.158,631.529 992.5,632C 988.177,634.458 983.51,635.125 978.5,634C 973.964,631.96 969.297,630.293 964.5,629C 963.465,625.389 961.798,624.889 959.5,627.5C 953.764,624.728 947.764,622.562 941.5,621C 936.876,618.372 932.876,615.039 929.5,611C 927.833,610.667 926.167,610.333 924.5,610C 923.663,608.989 923.33,607.822 923.5,606.5C 915.99,603.398 909.99,598.398 905.5,591.5C 904.707,591.931 903.873,592.265 903,592.5C 898.354,592.024 893.854,591.191 889.5,590C 890.416,589.626 891.25,589.126 892,588.5C 892.667,584.5 892.667,580.5 892,576.5C 887.124,567.239 882.291,557.905 877.5,548.5C 876.009,547.756 874.509,547.09 873,546.5C 872.5,538.173 872.334,529.84 872.5,521.5C 871.5,521.5 870.5,521.5 869.5,521.5C 868.061,526.651 867.061,531.984 866.5,537.5C 865.914,537.709 865.414,538.043 865,538.5C 864.667,541.833 864.333,545.167 864,548.5C 861.66,553.014 858.994,557.347 856,561.5C 854.288,568.907 850.621,575.24 845,580.5C 844.856,584.145 843.023,586.479 839.5,587.5C 838.702,589.078 838.202,590.744 838,592.5C 833.671,593.903 832.838,596.237 835.5,599.5C 833.955,600.452 832.288,600.785 830.5,600.5C 830.567,603.766 828.901,605.266 825.5,605C 824.152,607.513 822.152,609.347 819.5,610.5C 818.344,613.738 817.011,616.738 815.5,619.5C 810.067,619.878 804.734,620.878 799.5,622.5C 800.025,623.192 800.692,623.692 801.5,624C 797.346,626.783 792.679,628.117 787.5,628C 785.561,628.908 784.561,630.408 784.5,632.5C 780.636,633.102 776.969,634.268 773.5,636C 749.818,637.28 726.151,637.28 702.5,636C 697.552,633.465 692.218,631.799 686.5,631C 681.142,626.831 675.142,624.165 668.5,623C 660.235,616.397 651.235,611.064 641.5,607C 639.845,604.347 637.845,602.014 635.5,600C 636.451,599.282 636.617,598.449 636,597.5C 633.586,595.709 631.086,594.043 628.5,592.5C 626.799,587.478 624.632,582.811 622,578.5C 620.301,577.594 618.467,577.261 616.5,577.5C 616.808,575.076 616.474,572.743 615.5,570.5C 614.17,568.907 612.836,567.24 611.5,565.5C 612.025,564.808 612.692,564.308 613.5,564C 608.637,561.153 603.47,558.986 598,557.5C 594.738,559.093 591.738,561.093 589,563.5C 583.935,571.842 578.935,580.175 574,588.5C 572.301,589.406 570.467,589.739 568.5,589.5C 566.436,593.431 565.102,597.764 564.5,602.5C 560.231,604.187 555.898,605.687 551.5,607C 549.588,608.2 548.255,609.867 547.5,612C 545.866,612.494 544.199,612.66 542.5,612.5C 542.67,613.822 542.337,614.989 541.5,616C 532.546,619.126 524.212,623.459 516.5,629C 512.833,629.333 509.167,629.667 505.5,630C 506.672,630.419 507.672,631.085 508.5,632C 503.833,632.667 499.167,632.667 494.5,632C 497.029,630.938 499.696,630.105 502.5,629.5C 502.167,629.167 501.833,628.833 501.5,628.5C 494.712,630.724 488.712,629.558 483.5,625C 482.446,623.612 482.28,622.112 483,620.5C 484.667,618.455 486.5,616.622 488.5,615C 484.589,613.44 480.922,611.44 477.5,609C 468.167,608.333 458.833,608.333 449.5,609C 452.167,610.333 452.167,611.667 449.5,613C 450.167,613.667 450.833,614.333 451.5,615C 446.258,615.246 443.258,617.912 442.5,623C 439.714,625.726 436.381,627.393 432.5,628C 431.62,629.356 431.286,630.856 431.5,632.5C 429.801,632.66 428.134,632.494 426.5,632C 420.833,629.667 415.167,627.333 409.5,625C 408.663,623.989 408.33,622.822 408.5,621.5C 405.813,621.664 403.146,621.497 400.5,621C 393.008,615.42 385.341,610.087 377.5,605C 375.866,604.506 374.199,604.34 372.5,604.5C 372.649,603.448 372.483,602.448 372,601.5C 370.339,598.342 367.839,596.008 364.5,594.5C 362.918,589.749 359.751,586.416 355,584.5C 355.551,579.901 353.718,576.735 349.5,575C 351.255,574.28 352.089,573.113 352,571.5C 348.167,568 344.333,564.5 340.5,561C 341.217,559.469 342.217,558.136 343.5,557C 342.991,555.831 342.158,554.998 341,554.5C 340.654,551.424 339.988,548.424 339,545.5C 338.311,546.357 337.478,547.023 336.5,547.5C 335.344,544.262 334.011,541.262 332.5,538.5C 331.5,538.5 330.5,538.5 329.5,538.5C 327.944,541.274 326.111,543.941 324,546.5C 323.178,550.876 322.178,555.209 321,559.5C 319.49,561.208 317.99,562.874 316.5,564.5C 313.833,570.167 311.167,575.833 308.5,581.5C 303.105,588.041 297.439,594.375 291.5,600.5C 289.5,601.833 287.5,603.167 285.5,604.5C 283.084,600.671 280.751,600.838 278.5,605C 279.357,605.689 280.023,606.522 280.5,607.5C 276.449,612.033 271.783,615.867 266.5,619C 258.61,621.885 250.943,625.218 243.5,629C 231.979,631.724 220.312,634.224 208.5,636.5C 201.564,635.172 194.564,634.172 187.5,633.5C 180.856,634.548 174.19,634.714 167.5,634C 162.415,632.085 157.081,631.085 151.5,631C 147.462,626.636 142.462,624.636 136.5,625C 135.833,624 135.167,623 134.5,622C 131.389,621.556 128.723,620.223 126.5,618C 123.993,617.907 121.826,617.074 120,615.5C 119.035,617.26 117.868,617.594 116.5,616.5C 117.025,615.808 117.692,615.308 118.5,615C 116.667,612.5 114.833,610 113,607.5C 108.81,606.495 105.644,604.161 103.5,600.5C 101.032,599.197 98.699,597.697 96.5,596C 97.8989,595.405 99.2322,595.572 100.5,596.5C 101.386,595.675 101.719,594.675 101.5,593.5C 100.127,593.657 98.7932,593.49 97.5,593C 96.5467,591.045 95.2134,589.378 93.5,588C 93.9574,587.586 94.2907,587.086 94.5,586.5C 93.3112,585.571 91.9778,585.238 90.5,585.5C 90.6495,584.448 90.4828,583.448 90,582.5C 88.4941,580.826 86.6607,579.826 84.5,579.5C 82.9891,576.738 81.6558,573.738 80.5,570.5C 79.5,569.833 78.5,569.167 77.5,568.5C 74.9642,566.091 73.4642,563.091 73,559.5C 69.8408,558.255 70.0074,557.088 73.5,556C 71.6667,554.833 69.8333,553.667 68,552.5C 67.8999,549.563 67.0666,546.896 65.5,544.5C 67.1045,542.821 67.7711,540.821 67.5,538.5C 65.7376,538.643 64.0709,538.309 62.5,537.5C 61.6683,529.187 61.1683,520.853 61,512.5C 60.6667,512.167 60.3333,511.833 60,511.5C 59.8295,513.715 59.1628,515.715 58,517.5C 56.6253,515.063 56.1253,512.397 56.5,509.5C 59.5904,510.17 61.257,509.003 61.5,506C 59.1746,497.875 59.1746,489.875 61.5,482C 59.6628,477.646 59.1628,473.146 60,468.5C 61.2687,464.351 61.9354,460.018 62,455.5C 63.7746,453.292 65.2746,450.958 66.5,448.5C 67.3236,445.215 67.8236,441.882 68,438.5C 72.1816,433.794 75.3483,428.461 77.5,422.5C 80.9254,419.405 83.5921,415.738 85.5,411.5C 91.2793,405.346 96.946,399.013 102.5,392.5C 109.023,388.927 114.69,384.427 119.5,379C 121.167,378.667 122.833,378.333 124.5,378C 129.031,375.041 133.697,372.375 138.5,370C 143.001,369.083 147.001,367.083 150.5,364C 155.167,363.667 159.833,363.333 164.5,363C 167.5,362 170.5,361 173.5,360C 189.5,359.667 205.5,359.333 221.5,359C 222.056,358.617 222.389,358.117 222.5,357.5 Z M 1140.5,471.5 C 1141.79,472.871 1142.45,474.705 1142.5,477C 1142.17,478.833 1141.83,480.667 1141.5,482.5C 1140.51,478.893 1140.18,475.226 1140.5,471.5 Z M 597.5,541.5 C 599.89,542.512 601.556,544.179 602.5,546.5C 602.41,548.425 601.41,549.592 599.5,550C 603.155,551.806 603.321,553.639 600,555.5C 599.127,555.265 598.293,554.931 597.5,554.5C 596.613,552.117 595.613,549.784 594.5,547.5C 595.689,545.557 596.689,543.557 597.5,541.5 Z"/></g>
<g><path style="opacity:0.064" fill="#fdfdfe" d="M 1427.5,541.5 C 1427.67,546.511 1427.5,551.511 1427,556.5C 1425.24,558.616 1423.74,560.949 1422.5,563.5C 1423.17,564.167 1423.83,564.833 1424.5,565.5C 1422.97,566.861 1421.3,568.028 1419.5,569C 1417.82,573.025 1415.15,576.191 1411.5,578.5C 1410.72,582.776 1409.22,586.776 1407,590.5C 1404.41,592.211 1401.91,594.045 1399.5,596C 1400.17,596.667 1400.83,597.333 1401.5,598C 1397.26,601.013 1392.76,603.513 1388,605.5C 1386.28,608.623 1385.11,611.956 1384.5,615.5C 1380.18,614.799 1376.51,615.966 1373.5,619C 1366.98,621.264 1360.98,624.598 1355.5,629C 1352.85,629.497 1350.19,629.664 1347.5,629.5C 1347.5,630.5 1347.5,631.5 1347.5,632.5C 1343.18,631.799 1339.51,632.966 1336.5,636C 1332.76,636.929 1329.26,636.429 1326,634.5C 1325.31,635.357 1324.48,636.023 1323.5,636.5C 1319.63,635.208 1315.79,633.875 1312,632.5C 1303.24,633.319 1294.41,633.819 1285.5,634C 1299.97,635.798 1299.97,636.465 1285.5,636C 1275.32,634.974 1265.16,633.474 1255,631.5C 1252.88,632.459 1250.71,632.626 1248.5,632C 1249.17,631.333 1249.83,630.667 1250.5,630C 1248.09,629.694 1245.93,628.861 1244,627.5C 1242.74,627.759 1241.74,628.426 1241,629.5C 1236.94,626.058 1232.44,623.558 1227.5,622C 1218.22,622.66 1209.89,620.327 1202.5,615C 1204.39,613.922 1205.39,612.255 1205.5,610C 1203.41,605.784 1201.24,601.617 1199,597.5C 1195.42,594.128 1191.25,591.961 1186.5,591C 1185.17,590 1183.83,589 1182.5,588C 1186.04,586.747 1186.38,584.913 1183.5,582.5C 1184.03,581.808 1184.69,581.308 1185.5,581C 1182.42,577.285 1179.08,573.785 1175.5,570.5C 1174.79,565.783 1172.79,561.783 1169.5,558.5C 1168.68,555.553 1168.18,552.553 1168,549.5C 1166.5,546.747 1165,544.08 1163.5,541.5C 1160.94,532.013 1158.77,522.346 1157,512.5C 1157.84,501.496 1157.51,490.496 1156,479.5C 1154.96,477.415 1153.46,475.748 1151.5,474.5C 1152.24,473.713 1153.08,473.047 1154,472.5C 1154.05,469.139 1155.05,466.139 1157,463.5C 1158.85,454.45 1160.85,445.45 1163,436.5C 1164.89,434.974 1165.89,432.974 1166,430.5C 1174.63,422.051 1181.46,412.384 1186.5,401.5C 1192.85,399.155 1198.85,395.988 1204.5,392C 1208.09,381.026 1215.75,376.359 1227.5,378C 1229.17,377 1230.83,376 1232.5,375C 1233.64,371.303 1232.81,370.803 1230,373.5C 1229.13,372.892 1228.63,372.059 1228.5,371C 1230.58,369.756 1231.58,367.923 1231.5,365.5C 1235.35,365.178 1238.52,366.511 1241,369.5C 1243.31,363.479 1247.14,362.146 1252.5,365.5C 1257.19,363.847 1262.02,362.514 1267,361.5C 1269.03,361.354 1270.7,362.02 1272,363.5C 1273,362.167 1274,360.833 1275,359.5C 1275.92,361.314 1277.42,362.314 1279.5,362.5C 1292.35,359.026 1305.35,358.693 1318.5,361.5C 1320.48,361.563 1322.15,360.896 1323.5,359.5C 1324.5,360.167 1325.5,360.833 1326.5,361.5C 1327.61,360.389 1328.94,359.722 1330.5,359.5C 1333.48,360.729 1336.48,361.895 1339.5,363C 1346.83,363.333 1354.17,363.667 1361.5,364C 1363.16,366.654 1364.5,369.487 1365.5,372.5C 1367.55,374.015 1369.88,374.849 1372.5,375C 1373.34,376.011 1373.67,377.178 1373.5,378.5C 1378.93,378.714 1382.93,381.214 1385.5,386C 1392.68,389.402 1398.35,394.402 1402.5,401C 1404.13,401.494 1405.8,401.66 1407.5,401.5C 1407.18,404.572 1407.52,407.572 1408.5,410.5C 1411.78,417.002 1415.95,423.002 1421,428.5C 1421.33,431.167 1421.67,433.833 1422,436.5C 1425.15,438.779 1425.31,441.279 1422.5,444C 1425.67,446.828 1427.51,450.328 1428,454.5C 1431.46,475.964 1432.29,497.631 1430.5,519.5C 1430.7,521.286 1431.53,522.619 1433,523.5C 1433.17,525.167 1433.33,526.833 1433.5,528.5C 1431.75,532.501 1430.75,536.834 1430.5,541.5C 1429.5,541.5 1428.5,541.5 1427.5,541.5 Z M 1214.5,382.5 C 1216.2,382.34 1217.87,382.506 1219.5,383C 1217.42,385.139 1215.75,384.972 1214.5,382.5 Z M 1428.5,524.5 C 1430.85,525.543 1431.02,526.876 1429,528.5C 1428.51,527.207 1428.34,525.873 1428.5,524.5 Z M 1427.5,541.5 C 1426.35,541.209 1425.68,540.376 1425.5,539C 1425.83,538.167 1426.17,537.333 1426.5,536.5C 1427.45,538.045 1427.79,539.712 1427.5,541.5 Z"/></g>
<g><path style="opacity:0.994" fill="#a9dced" d="M 824.5,591.5 C 818.178,585.91 811.345,580.91 804,576.5C 801.388,566.896 796.055,559.23 788,553.5C 790.98,538.232 793.98,522.899 797,507.5C 800.28,489.162 800.28,470.829 797,452.5C 787.45,412.641 762.283,394.807 721.5,399C 698.109,405.389 681.942,419.889 673,442.5C 664.703,469.354 664.37,496.354 672,523.5C 674.533,532.266 677.366,540.932 680.5,549.5C 670.281,555.251 663.947,563.918 661.5,575.5C 655.167,579 648.833,582.5 642.5,586C 640.859,587.129 639.859,588.629 639.5,590.5C 603.039,549.376 593.206,502.376 610,449.5C 635.65,389.549 681.15,361.049 746.5,364C 805.055,372.885 842.889,405.718 860,462.5C 869.71,505.265 861.71,544.265 836,579.5C 832.664,584.002 828.831,588.002 824.5,591.5 Z"/></g>
<g><path style="opacity:0.996" fill="#937fda" d="M 1286.5,363.5 C 1342.05,361.685 1384.21,384.352 1413,431.5C 1429.5,464.396 1433.16,498.729 1424,534.5C 1410.1,579.401 1380.93,609.568 1336.5,625C 1271.45,640.438 1221.28,619.938 1186,563.5C 1169.51,531.408 1165.18,497.742 1173,462.5C 1185.97,416.86 1214.81,386.026 1259.5,370C 1268.53,367.394 1277.53,365.227 1286.5,363.5 Z"/></g>
<g><path style="opacity:0.993" fill="#c8aadc" d="M 1104.5,587.5 C 1090.41,578.119 1075.41,570.286 1059.5,564C 1056.17,561.333 1052.83,558.667 1049.5,556C 1059.85,544.12 1066.02,530.287 1068,514.5C 1069.2,491.676 1070.36,468.842 1071.5,446C 1072.3,435.08 1069.47,425.247 1063,416.5C 1043.5,394.663 1019.66,388.163 991.5,397C 966.133,405.072 953.133,422.405 952.5,449C 953.197,457.17 953.864,465.337 954.5,473.5C 948.283,473.538 944.116,476.538 942,482.5C 939.916,496.833 944.416,508.666 955.5,518C 958.014,519.252 960.68,519.752 963.5,519.5C 964.802,526.44 966.968,533.106 970,539.5C 970.667,543.167 970.667,546.833 970,550.5C 956.591,561.797 941.757,570.964 925.5,578C 920.744,580.699 916.411,583.866 912.5,587.5C 876.45,544.013 868.616,495.679 889,442.5C 912.805,392.834 952.305,366.501 1007.5,363.5C 1071.77,367.047 1113.94,399.381 1134,460.5C 1146.07,507.873 1136.24,550.206 1104.5,587.5 Z"/></g>
<g><path style="opacity:0.996" fill="#23262c" d="M 1104.5,587.5 C 1103.5,589.167 1102.17,590.5 1100.5,591.5C 1099.36,589.567 1097.69,588.067 1095.5,587C 1085.38,581.432 1075.05,576.765 1064.5,573C 1067.76,580.359 1070.09,588.026 1071.5,596C 1071.48,601.198 1069.15,605.032 1064.5,607.5C 1066.43,609.389 1068.27,611.389 1070,613.5C 1071.99,612.086 1074.16,611.086 1076.5,610.5C 1073.51,613 1070.17,615 1066.5,616.5C 1062.28,614.445 1059.28,611.278 1057.5,607C 1057.67,606.167 1057.83,605.333 1058,604.5C 1061.51,602.321 1064.35,599.488 1066.5,596C 1063.87,587.105 1061.04,578.272 1058,569.5C 1054.25,566.71 1050.42,564.043 1046.5,561.5C 1046.36,582.461 1046.36,603.461 1046.5,624.5C 1044.88,625.038 1043.22,625.371 1041.5,625.5C 1041.67,611.829 1041.5,598.163 1041,584.5C 1038.19,588.662 1034.36,591.495 1029.5,593C 1009.28,597.703 992.115,592.536 978,577.5C 980.502,594.181 983.335,610.847 986.5,627.5C 983.794,627.425 981.127,627.092 978.5,626.5C 979.263,625.732 980.263,625.232 981.5,625C 979.09,613.52 976.59,602.02 974,590.5C 973.031,578.848 972.198,567.181 971.5,555.5C 967.766,559.403 963.6,562.737 959,565.5C 955.88,575.634 954.214,585.967 954,596.5C 956.803,598.819 959.97,600.485 963.5,601.5C 964.724,603.898 964.558,606.231 963,608.5C 960.317,611.016 957.817,613.683 955.5,616.5C 956.665,617.584 957.998,618.417 959.5,619C 959.272,619.399 958.938,619.565 958.5,619.5C 955.314,618.403 952.314,617.07 949.5,615.5C 951.58,611.914 954.246,608.747 957.5,606C 952.755,604.885 949.588,602.052 948,597.5C 948.014,588.759 948.681,580.093 950,571.5C 938.682,578.241 927.182,584.574 915.5,590.5C 914.167,589.833 913.167,588.833 912.5,587.5C 916.411,583.866 920.744,580.699 925.5,578C 941.757,570.964 956.591,561.797 970,550.5C 970.667,546.833 970.667,543.167 970,539.5C 966.968,533.106 964.802,526.44 963.5,519.5C 960.68,519.752 958.014,519.252 955.5,518C 944.416,508.666 939.916,496.833 942,482.5C 944.116,476.538 948.283,473.538 954.5,473.5C 953.864,465.337 953.197,457.17 952.5,449C 953.133,422.405 966.133,405.072 991.5,397C 1019.66,388.163 1043.5,394.663 1063,416.5C 1069.47,425.247 1072.3,435.08 1071.5,446C 1070.36,468.842 1069.2,491.676 1068,514.5C 1066.02,530.287 1059.85,544.12 1049.5,556C 1052.83,558.667 1056.17,561.333 1059.5,564C 1075.41,570.286 1090.41,578.119 1104.5,587.5 Z"/></g>
<g><path style="opacity:0.996" fill="#24272d" d="M 279.5,598.5 C 278.833,599.833 277.833,600.833 276.5,601.5C 270.477,597.135 264.477,592.801 258.5,588.5C 252.954,584.231 246.621,581.231 239.5,579.5C 238.216,578.37 237.383,577.037 237,575.5C 233.655,575.823 230.489,575.823 227.5,575.5C 221.879,574.208 218.212,570.875 216.5,565.5C 196.646,571.828 179.146,567.828 164,553.5C 163.479,558.852 162.813,564.185 162,569.5C 160.833,570.667 159.667,571.833 158.5,573C 152.865,575.599 147.198,578.099 141.5,580.5C 142.952,581.94 143.952,583.606 144.5,585.5C 144.414,586.496 144.748,587.329 145.5,588C 144.833,588.667 144.167,588.667 143.5,588C 142.333,586.167 141.167,584.333 140,582.5C 139.667,582.833 139.333,583.167 139,583.5C 136.626,581.884 134.793,580.217 133.5,578.5C 132.895,579.587 133.228,580.754 134.5,582C 132.557,581.695 130.557,581.695 128.5,582C 126.479,586.391 123.312,588.558 119,588.5C 117.902,589.967 116.402,590.801 114.5,591C 114.833,591.333 115.167,591.667 115.5,592C 114.619,592.708 113.953,593.542 113.5,594.5C 112.694,595.728 111.694,596.728 110.5,597.5C 109.5,596.833 108.5,596.167 107.5,595.5C 107.937,593.926 108.937,592.759 110.5,592C 115.668,588.581 121.002,585.415 126.5,582.5C 120.986,577.808 117.819,571.808 117,564.5C 115.275,531.804 117.942,499.471 125,467.5C 128.682,449.426 136.015,433.093 147,418.5C 165.768,401.681 187.602,395.848 212.5,401C 233.01,408.173 247.844,421.673 257,441.5C 261.884,452.366 265.217,463.699 267,475.5C 270.33,506.077 271.663,536.743 271,567.5C 269.915,574.5 267.082,580.667 262.5,586C 268.196,590.176 273.863,594.343 279.5,598.5 Z"/></g>
<g><path style="opacity:0.996" fill="#b5ecc8" d="M 557.5,592.5 C 556.746,589.909 555.079,588.076 552.5,587C 534.988,579.329 518.155,570.495 502,560.5C 501.333,557.5 501.333,554.5 502,551.5C 507.985,540.89 511.819,529.557 513.5,517.5C 518.351,518.216 522.518,516.883 526,513.5C 531.978,503.248 533.978,492.248 532,480.5C 530.12,473.642 525.62,470.309 518.5,470.5C 518.5,468.5 518.5,466.5 518.5,464.5C 526.423,428.199 512.089,406.366 475.5,399C 451.291,395.01 431.291,402.176 415.5,420.5C 411.057,426.057 408.224,432.39 407,439.5C 406.424,450.216 406.924,460.883 408.5,471.5C 401.357,471.13 396.857,474.463 395,481.5C 392.674,493.537 394.841,504.704 401.5,515C 405.674,517.59 410.174,519.09 415,519.5C 416.822,530.648 421.155,540.648 428,549.5C 428.821,552.554 428.655,555.554 427.5,558.5C 413.31,569.102 397.977,577.935 381.5,585C 378.58,586.946 375.913,589.113 373.5,591.5C 344.017,560.554 331.517,523.554 336,480.5C 344.661,424.847 375.494,387.68 428.5,369C 491.673,354.159 541.507,373.326 578,426.5C 585.292,439.041 590.625,452.375 594,466.5C 594.276,476.858 593.776,487.191 592.5,497.5C 593.335,506.506 593.835,515.506 594,524.5C 588.325,550.862 576.158,573.529 557.5,592.5 Z"/></g>
<g><path style="opacity:0.996" fill="#24272d" d="M 518.5,464.5 C 517.92,466.211 516.92,468.378 515.5,471C 519.331,470.711 522.998,471.711 526.5,474C 528.036,475.599 528.536,477.433 528,479.5C 525.884,475.181 522.717,473.847 518.5,475.5C 517.069,477.189 516.236,479.189 516,481.5C 514.644,482.38 513.144,482.714 511.5,482.5C 511.662,480.473 511.495,478.473 511,476.5C 506.267,462.967 501.934,449.3 498,435.5C 497.481,434.484 496.647,433.818 495.5,433.5C 485.147,435.897 474.647,436.897 464,436.5C 452.559,437.19 441.392,435.857 430.5,432.5C 427.427,438.737 424.76,445.07 422.5,451.5C 421.784,451.217 420.951,450.884 420,450.5C 419.06,452.821 417.56,454.988 415.5,457C 417.406,458.993 418.573,458.493 419,455.5C 419.635,457.635 419.301,459.635 418,461.5C 417.29,460.027 416.124,459.36 414.5,459.5C 414.137,461.911 415.137,463.411 417.5,464C 415.667,464.5 414.5,465.667 414,467.5C 413.333,464.833 412.667,464.833 412,467.5C 411.667,466.167 411.333,464.833 411,463.5C 410.667,465.5 410.333,467.5 410,469.5C 408.522,458.873 408.188,448.206 409,437.5C 410.256,431.554 412.756,426.221 416.5,421.5C 416.376,420.893 416.043,420.56 415.5,420.5C 431.291,402.176 451.291,395.01 475.5,399C 512.089,406.366 526.423,428.199 518.5,464.5 Z"/></g>
<g><path style="opacity:0.996" fill="#ebb48b" d="M 518.5,475.5 C 523.929,475.426 527.096,478.093 528,483.5C 528.991,491.881 527.657,499.881 524,507.5C 522.833,510 521,511.833 518.5,513C 515.242,513.212 512.076,513.712 509,514.5C 507.875,531.238 501.375,545.405 489.5,557C 460.048,570.528 438.214,562.694 424,533.5C 421.244,526.735 419.411,519.735 418.5,512.5C 408.934,515.432 402.768,512.098 400,502.5C 398.576,496.224 398.242,489.891 399,483.5C 400.53,477.946 404.03,475.779 409.5,477C 411.004,478.337 412.004,480.004 412.5,482C 413.784,482.684 414.951,482.517 416,481.5C 417.538,471.348 419.705,461.348 422.5,451.5C 424.76,445.07 427.427,438.737 430.5,432.5C 441.392,435.857 452.559,437.19 464,436.5C 474.647,436.897 485.147,435.897 495.5,433.5C 496.647,433.818 497.481,434.484 498,435.5C 501.934,449.3 506.267,462.967 511,476.5C 511.495,478.473 511.662,480.473 511.5,482.5C 513.144,482.714 514.644,482.38 516,481.5C 516.236,479.189 517.069,477.189 518.5,475.5 Z"/></g>
<g><path style="opacity:0.996" fill="#f9d1d9" d="M 279.5,598.5 C 273.863,594.343 268.196,590.176 262.5,586C 267.082,580.667 269.915,574.5 271,567.5C 271.663,536.743 270.33,506.077 267,475.5C 265.217,463.699 261.884,452.366 257,441.5C 247.844,421.673 233.01,408.173 212.5,401C 187.602,395.848 165.768,401.681 147,418.5C 136.015,433.093 128.682,449.426 125,467.5C 117.942,499.471 115.275,531.804 117,564.5C 117.819,571.808 120.986,577.808 126.5,582.5C 121.002,585.415 115.668,588.581 110.5,592C 108.937,592.759 107.937,593.926 107.5,595.5C 65.5698,552.026 54.7364,501.693 75,444.5C 103.48,386 150.313,359.833 215.5,366C 263.742,375.206 297.575,402.373 317,447.5C 335.173,499.623 326.507,546.623 291,588.5C 287.571,592.439 283.737,595.772 279.5,598.5 Z"/></g>
<g><path style="opacity:0.996" fill="#fcfbfd" d="M 1291.5,459.5 C 1308.56,457.404 1318.73,464.738 1322,481.5C 1322.82,491.212 1322.49,500.879 1321,510.5C 1317.15,525.989 1307.32,532.156 1291.5,529C 1283.05,526.714 1278.38,521.214 1277.5,512.5C 1281.17,512.5 1284.83,512.5 1288.5,512.5C 1288.55,515.099 1289.55,517.266 1291.5,519C 1300.44,522.95 1306.6,520.45 1310,511.5C 1311.23,507.518 1311.9,503.518 1312,499.5C 1305.86,505.064 1298.69,506.897 1290.5,505C 1280.07,501.725 1274.74,494.558 1274.5,483.5C 1274.81,471.549 1280.48,463.549 1291.5,459.5 Z"/></g>
<g><path style="opacity:0.996" fill="#fcfbfd" d="M 1352.5,459.5 C 1368.43,456.819 1378.09,463.153 1381.5,478.5C 1377.83,478.5 1374.17,478.5 1370.5,478.5C 1367.43,468.312 1361.1,465.812 1351.5,471C 1346.33,476.863 1344.16,483.696 1345,491.5C 1354.31,481.728 1364.47,480.894 1375.5,489C 1384.32,499.69 1384.82,510.857 1377,522.5C 1368.58,529.526 1359.08,531.359 1348.5,528C 1339.54,523.263 1334.71,515.763 1334,505.5C 1331.93,492.465 1333.93,480.132 1340,468.5C 1343.65,464.609 1347.82,461.609 1352.5,459.5 Z"/></g>
<g><path style="opacity:0.004" fill="#fefffe" d="M 1140.5,463.5 C 1140.9,462.475 1141.56,462.308 1142.5,463C 1141.91,463.464 1141.24,463.631 1140.5,463.5 Z"/></g>
<g><path style="opacity:0.996" fill="#202028" d="M 440.5,462.5 C 445.034,462.267 449.368,463.1 453.5,465C 454.517,466.049 454.684,467.216 454,468.5C 447.441,468.039 440.941,468.539 434.5,470C 433.253,468.506 433.253,467.006 434.5,465.5C 436.444,464.199 438.444,463.199 440.5,462.5 Z"/></g>
<g><path style="opacity:0.995" fill="#faf9fd" d="M 1235.5,474.5 C 1238.83,474.5 1242.17,474.5 1245.5,474.5C 1245.5,481.167 1245.5,487.833 1245.5,494.5C 1251.83,494.5 1258.17,494.5 1264.5,494.5C 1264.5,497.833 1264.5,501.167 1264.5,504.5C 1258.17,504.5 1251.83,504.5 1245.5,504.5C 1245.5,510.5 1245.5,516.5 1245.5,522.5C 1242.38,523.479 1239.04,523.813 1235.5,523.5C 1235.5,517.167 1235.5,510.833 1235.5,504.5C 1228.98,504.823 1222.64,504.49 1216.5,503.5C 1216.5,500.5 1216.5,497.5 1216.5,494.5C 1222.83,494.5 1229.17,494.5 1235.5,494.5C 1235.5,487.833 1235.5,481.167 1235.5,474.5 Z"/></g>
<g><path style="opacity:0.996" fill="#927dd9" d="M 1294.5,468.5 C 1307.11,467.947 1312.61,473.947 1311,486.5C 1307.62,496.268 1301.12,499.101 1291.5,495C 1285.1,488.709 1283.93,481.542 1288,473.5C 1289.97,471.45 1292.13,469.783 1294.5,468.5 Z"/></g>
<g><path style="opacity:0.996" fill="#7354d0" d="M 1235.5,474.5 C 1235.5,481.167 1235.5,487.833 1235.5,494.5C 1229.17,494.5 1222.83,494.5 1216.5,494.5C 1216.5,497.5 1216.5,500.5 1216.5,503.5C 1215.52,500.375 1215.19,497.042 1215.5,493.5C 1221.83,493.5 1228.17,493.5 1234.5,493.5C 1234.18,486.978 1234.51,480.645 1235.5,474.5 Z"/></g>
<g><path style="opacity:0.996" fill="#ebb58b" d="M 197.5,429.5 C 210.832,449.325 228.165,464.825 249.5,476C 250.275,500.407 245.109,523.573 234,545.5C 221.253,562.485 204.753,567.318 184.5,560C 165.303,550.444 154.137,534.944 151,513.5C 136.813,513.814 129.646,506.814 129.5,492.5C 129.181,486.971 131.181,482.471 135.5,479C 137.167,478.333 138.833,478.333 140.5,479C 142.641,480.308 144.641,481.808 146.5,483.5C 148.702,481.589 150.369,479.255 151.5,476.5C 166.6,468.891 179.434,458.558 190,445.5C 193.174,440.475 195.674,435.142 197.5,429.5 Z"/></g>
<g><path style="opacity:0.996" fill="#1e212a" d="M 183.5,482.5 C 189.795,482.984 191.961,486.317 190,492.5C 187.048,496.482 184.048,496.482 181,492.5C 179.861,488.579 180.695,485.246 183.5,482.5 Z"/></g>
<g><path style="opacity:0.996" fill="#20222a" d="M 222.5,483.5 C 225.044,483.104 227.211,483.771 229,485.5C 230.004,488.993 229.504,492.159 227.5,495C 224.196,496.042 222.029,494.875 221,491.5C 220.282,488.593 220.782,485.926 222.5,483.5 Z"/></g>
<g><path style="opacity:0.996" fill="#202029" d="M 218.5,468.5 C 224.279,467.708 229.446,469.041 234,472.5C 234.494,474.134 234.66,475.801 234.5,477.5C 231.984,477.245 229.65,476.411 227.5,475C 224.167,474.667 220.833,474.333 217.5,474C 216.243,471.924 216.576,470.09 218.5,468.5 Z"/></g>
<g><path style="opacity:0.996" fill="#1f2129" d="M 180.5,466.5 C 184.584,466.043 188.417,466.71 192,468.5C 192.667,469.5 192.667,470.5 192,471.5C 185.389,471.598 179.222,473.264 173.5,476.5C 171.616,475.307 171.116,473.641 172,471.5C 174.682,469.415 177.516,467.748 180.5,466.5 Z"/></g>
<g><path style="opacity:0.996" fill="#1f2129" d="M 207.5,490.5 C 209.411,490.574 210.578,491.574 211,493.5C 213.38,497.916 214.88,502.582 215.5,507.5C 216.13,513.256 213.63,516.589 208,517.5C 205.63,517.4 203.797,516.4 202.5,514.5C 202.709,513.914 203.043,513.414 203.5,513C 206.095,512.774 208.595,512.274 211,511.5C 211.667,509.833 211.667,508.167 211,506.5C 209.299,502.396 207.799,498.229 206.5,494C 206.648,492.744 206.982,491.577 207.5,490.5 Z"/></g>
<g><path style="opacity:0.996" fill="#937eda" d="M 1354.5,493.5 C 1369.31,493.063 1374.47,500.063 1370,514.5C 1365.23,521.533 1359.06,523.033 1351.5,519C 1345.51,513.953 1344.01,507.786 1347,500.5C 1348.74,497.254 1351.24,494.921 1354.5,493.5 Z"/></g>
<g><path style="opacity:0.996" fill="#7455d2" d="M 1264.5,504.5 C 1258.69,505.49 1252.69,505.823 1246.5,505.5C 1246.82,511.358 1246.49,517.025 1245.5,522.5C 1245.5,516.5 1245.5,510.5 1245.5,504.5C 1251.83,504.5 1258.17,504.5 1264.5,504.5 Z"/></g>
<g><path style="opacity:0.996" fill="#202228" d="M 415.5,420.5 C 416.043,420.56 416.376,420.893 416.5,421.5C 412.756,426.221 410.256,431.554 409,437.5C 408.188,448.206 408.522,458.873 410,469.5C 410.333,467.5 410.667,465.5 411,463.5C 411.333,464.833 411.667,466.167 412,467.5C 412.667,464.833 413.333,464.833 414,467.5C 414.5,465.667 415.667,464.5 417.5,464C 415.137,463.411 414.137,461.911 414.5,459.5C 416.124,459.36 417.29,460.027 418,461.5C 419.301,459.635 419.635,457.635 419,455.5C 418.573,458.493 417.406,458.993 415.5,457C 417.56,454.988 419.06,452.821 420,450.5C 420.951,450.884 421.784,451.217 422.5,451.5C 419.705,461.348 417.538,471.348 416,481.5C 414.951,482.517 413.784,482.684 412.5,482C 412.004,480.004 411.004,478.337 409.5,477C 404.03,475.779 400.53,477.946 399,483.5C 398.242,489.891 398.576,496.224 400,502.5C 402.768,512.098 408.934,515.432 418.5,512.5C 419.411,519.735 421.244,526.735 424,533.5C 438.214,562.694 460.048,570.528 489.5,557C 501.375,545.405 507.875,531.238 509,514.5C 512.076,513.712 515.242,513.212 518.5,513C 521,511.833 522.833,510 524,507.5C 527.657,499.881 528.991,491.881 528,483.5C 527.096,478.093 523.929,475.426 518.5,475.5C 522.717,473.847 525.884,475.181 528,479.5C 528.536,477.433 528.036,475.599 526.5,474C 522.998,471.711 519.331,470.711 515.5,471C 516.92,468.378 517.92,466.211 518.5,464.5C 518.5,466.5 518.5,468.5 518.5,470.5C 525.62,470.309 530.12,473.642 532,480.5C 533.978,492.248 531.978,503.248 526,513.5C 522.518,516.883 518.351,518.216 513.5,517.5C 511.819,529.557 507.985,540.89 502,551.5C 501.333,554.5 501.333,557.5 502,560.5C 518.155,570.495 534.988,579.329 552.5,587C 555.079,588.076 556.746,589.909 557.5,592.5C 557.167,593.5 556.5,594.167 555.5,594.5C 543.764,589.215 532.264,583.549 521,577.5C 522.88,584.503 524.38,591.669 525.5,599C 525.333,600.5 525.167,602 525,603.5C 522.982,605.35 521.149,607.35 519.5,609.5C 521.724,614.577 525.057,615.577 529.5,612.5C 530.107,612.624 530.44,612.957 530.5,613.5C 526.957,615.438 523.29,617.105 519.5,618.5C 516.707,615.532 514.041,612.366 511.5,609C 515.021,605.977 518.021,602.477 520.5,598.5C 518.839,590.351 516.672,582.351 514,574.5C 510.254,571.71 506.421,569.043 502.5,566.5C 502.966,586.173 502.3,605.84 500.5,625.5C 498.958,626.301 497.292,626.634 495.5,626.5C 496.707,614.19 497.207,601.856 497,589.5C 481.161,602.047 463.661,604.881 444.5,598C 439.786,595.949 435.619,593.115 432,589.5C 432.769,601.46 432.603,613.46 431.5,625.5C 425.414,623.694 419.414,621.694 413.5,619.5C 413.735,618.903 414.235,618.57 415,618.5C 419.02,620.34 423.187,621.674 427.5,622.5C 427.361,603.113 427.027,583.779 426.5,564.5C 423.167,567.167 419.833,569.833 416.5,572.5C 412.257,581.39 409.757,590.724 409,600.5C 412.109,603.421 414.943,606.421 417.5,609.5C 415.891,612.777 413.558,615.444 410.5,617.5C 408.716,617.107 407.05,616.441 405.5,615.5C 406.96,613.537 408.627,611.704 410.5,610C 407.02,607.201 404.353,603.867 402.5,600C 405.184,592.634 407.017,585.134 408,577.5C 397.352,582.883 386.852,588.55 376.5,594.5C 375.167,593.833 374.167,592.833 373.5,591.5C 375.913,589.113 378.58,586.946 381.5,585C 397.977,577.935 413.31,569.102 427.5,558.5C 428.655,555.554 428.821,552.554 428,549.5C 421.155,540.648 416.822,530.648 415,519.5C 410.174,519.09 405.674,517.59 401.5,515C 394.841,504.704 392.674,493.537 395,481.5C 396.857,474.463 401.357,471.13 408.5,471.5C 406.924,460.883 406.424,450.216 407,439.5C 408.224,432.39 411.057,426.057 415.5,420.5 Z"/></g>
<g><path style="opacity:0.996" fill="#1e2028" d="M 470.5,489.5 C 471.822,489.33 472.989,489.663 474,490.5C 475.548,497.779 476.215,505.113 476,512.5C 472.582,518.307 467.916,519.64 462,516.5C 461.51,515.207 461.343,513.873 461.5,512.5C 464.448,512.777 467.281,512.444 470,511.5C 469.818,504.092 469.984,496.759 470.5,489.5 Z"/></g>
<g><path style="opacity:0.996" fill="#21232a" d="M 484.5,478.5 C 491.385,479.969 493.219,483.969 490,490.5C 487.034,493.265 484.367,492.932 482,489.5C 480.813,485.217 481.647,481.55 484.5,478.5 Z"/></g>
<g><path style="opacity:0.996" fill="#202229" d="M 442.5,478.5 C 445.044,478.104 447.211,478.771 449,480.5C 449.929,484.244 449.429,487.744 447.5,491C 440.475,491.867 437.975,488.7 440,481.5C 441.045,480.627 441.878,479.627 442.5,478.5 Z"/></g>
<g><path style="opacity:0.996" fill="#22232b" d="M 481.5,463.5 C 487.701,462.285 492.868,463.952 497,468.5C 496.877,474.639 494.71,475.139 490.5,470C 486.833,469.667 483.167,469.333 479.5,469C 478.08,466.426 478.747,464.593 481.5,463.5 Z"/></g>
<g><path style="opacity:0.996" fill="#1e222a" d="M 186.5,524.5 C 196.319,530.732 206.819,532.066 218,528.5C 220.5,529.333 221,530.833 219.5,533C 209.005,537.82 198.672,537.487 188.5,532C 185.554,530.047 184.887,527.547 186.5,524.5 Z"/></g>
<g><path style="opacity:0.996" fill="#1e1f28" d="M 448.5,528.5 C 451.438,529.628 454.438,530.795 457.5,532C 459.833,532.167 462.167,532.333 464.5,532.5C 470.337,532.288 476.004,531.288 481.5,529.5C 481.95,533.224 480.283,535.391 476.5,536C 466.822,539.887 457.489,539.22 448.5,534C 447.248,532.172 447.248,530.339 448.5,528.5 Z"/></g>
<g><path style="opacity:0.996" fill="#eab48b" d="M 1050.5,435.5 C 1051.83,435.5 1053.17,435.5 1054.5,435.5C 1054.33,438.85 1054.5,442.183 1055,445.5C 1066.21,473.313 1067.54,501.646 1059,530.5C 1052.13,550.557 1038.29,561.89 1017.5,564.5C 989.31,559.477 972.477,542.811 967,514.5C 963.481,514.774 959.981,514.274 956.5,513C 946.561,503.561 943.895,492.561 948.5,480C 951.12,477.729 954.12,477.062 957.5,478C 960.344,480.181 963.178,482.347 966,484.5C 978.715,471.194 984.215,455.194 982.5,436.5C 1000.08,439.022 1017.75,439.855 1035.5,439C 1040.73,438.248 1045.73,437.081 1050.5,435.5 Z"/></g>
<g><path style="opacity:0.988" fill="#1b1d26" d="M 1000.5,526.5 C 1001.87,526.343 1003.21,526.51 1004.5,527C 1007.05,529.442 1010.05,531.108 1013.5,532C 1020.94,533.195 1028.11,532.361 1035,529.5C 1037.5,530.333 1038,531.833 1036.5,534C 1028.5,537.336 1020.17,538.336 1011.5,537C 1005.28,535.942 1001.61,532.442 1000.5,526.5 Z"/></g>
<g><path style="opacity:0.98" fill="#1d1f28" d="M 1026.5,485.5 C 1028.78,485.756 1029.94,487.09 1030,489.5C 1030.89,497.517 1031.56,505.517 1032,513.5C 1029.32,518.923 1025.16,520.59 1019.5,518.5C 1018.57,517.311 1018.24,515.978 1018.5,514.5C 1021.69,514.98 1024.52,514.314 1027,512.5C 1027,505.326 1026.5,498.16 1025.5,491C 1025.58,489.076 1025.91,487.243 1026.5,485.5 Z"/></g>
<g><path style="opacity:0.988" fill="#22252c" d="M 999.5,477.5 C 1007.69,478.471 1009.69,482.638 1005.5,490C 1003.17,490.667 1000.83,490.667 998.5,490C 995.526,485.341 995.86,481.174 999.5,477.5 Z"/></g>
<g><path style="opacity:0.906" fill="#1f222a" d="M 1041.5,477.5 C 1048,477.18 1050.16,480.18 1048,486.5C 1046.69,489.306 1044.53,490.14 1041.5,489C 1038.86,485.1 1038.86,481.266 1041.5,477.5 Z"/></g>
<g><path style="opacity:0.992" fill="#1f2129" d="M 996.5,461.5 C 1001.69,460.944 1006.53,461.944 1011,464.5C 1011.49,465.793 1011.66,467.127 1011.5,468.5C 1003.74,466.964 996.071,467.297 988.5,469.5C 988.343,468.127 988.51,466.793 989,465.5C 991.255,463.501 993.755,462.168 996.5,461.5 Z"/></g>
<g><path style="opacity:0.967" fill="#21242a" d="M 1040.5,461.5 C 1045.39,460.784 1049.56,462.117 1053,465.5C 1053.67,466.5 1053.67,467.5 1053,468.5C 1047.66,467.496 1042.16,467.496 1036.5,468.5C 1036.19,465.163 1037.52,462.829 1040.5,461.5 Z"/></g>
<g><path style="opacity:0.996" fill="#24272d" d="M 824.5,591.5 C 823.833,592.833 822.833,593.833 821.5,594.5C 815.324,589.818 808.824,585.485 802,581.5C 778.881,623.429 745.381,634.595 701.5,615C 686.477,605.806 673.143,594.64 661.5,581.5C 654.613,584.436 648.279,588.103 642.5,592.5C 641.5,591.833 640.5,591.167 639.5,590.5C 639.859,588.629 640.859,587.129 642.5,586C 648.833,582.5 655.167,579 661.5,575.5C 663.947,563.918 670.281,555.251 680.5,549.5C 677.366,540.932 674.533,532.266 672,523.5C 664.37,496.354 664.703,469.354 673,442.5C 681.942,419.889 698.109,405.389 721.5,399C 762.283,394.807 787.45,412.641 797,452.5C 800.28,470.829 800.28,489.162 797,507.5C 793.98,522.899 790.98,538.232 788,553.5C 796.055,559.23 801.388,566.896 804,576.5C 811.345,580.91 818.178,585.91 824.5,591.5 Z"/></g>
<g><path style="opacity:0.996" fill="#ebb58b" d="M 730.5,433.5 C 754.538,432.439 771.038,443.106 780,465.5C 786.309,487.109 785.309,508.442 777,529.5C 766.906,552.631 749.739,560.798 725.5,554C 713.667,548.833 705.167,540.333 700,528.5C 689.763,497.92 694.43,469.92 714,444.5C 718.997,439.929 724.497,436.263 730.5,433.5 Z"/></g>
<g><path style="opacity:0.996" fill="#1f2129" d="M 724.5,521.5 C 728.105,522.963 731.771,524.463 735.5,526C 742.967,527.666 749.633,526.166 755.5,521.5C 756.72,521.887 757.387,522.72 757.5,524C 753.128,530.432 746.962,533.266 739,532.5C 732.095,532.63 726.595,529.964 722.5,524.5C 723.193,523.482 723.859,522.482 724.5,521.5 Z"/></g>
<g><path style="opacity:0.984" fill="#202129" d="M 746.5,485.5 C 747.873,485.343 749.207,485.51 750.5,486C 754.889,491.833 756.389,498.333 755,505.5C 752.647,510.26 748.814,512.26 743.5,511.5C 742.874,507.625 744.541,505.791 748.5,506C 749.98,504.701 750.646,503.034 750.5,501C 748.999,495.845 747.666,490.679 746.5,485.5 Z"/></g>
<g><path style="opacity:0.996" fill="#1f2029" d="M 762.5,477.5 C 767.776,478.293 769.609,481.293 768,486.5C 765.822,490.065 763.156,490.399 760,487.5C 758.863,483.537 759.697,480.204 762.5,477.5 Z"/></g>
<g><path style="opacity:0.94" fill="#20222a" d="M 719.5,478.5 C 725.997,478.18 728.164,481.18 726,487.5C 718.962,490.813 716.295,488.479 718,480.5C 718.717,479.956 719.217,479.289 719.5,478.5 Z"/></g>
<g><path style="opacity:0.992" fill="#1d2028" d="M 716.5,463.5 C 720.182,463.335 723.848,463.501 727.5,464C 730.035,464.928 731.035,466.762 730.5,469.5C 727.31,469.441 724.143,469.107 721,468.5C 717.467,469.537 713.967,470.37 710.5,471C 709.483,469.951 709.316,468.784 710,467.5C 712.013,465.752 714.18,464.418 716.5,463.5 Z"/></g>
<g><path style="opacity:0.996" fill="#1e2128" d="M 759.5,463.5 C 765.039,462.638 769.872,463.972 774,467.5C 774.986,469.925 774.319,471.591 772,472.5C 767.85,468.203 763.184,467.537 758,470.5C 756.699,469.902 755.865,468.902 755.5,467.5C 756.549,465.784 757.882,464.451 759.5,463.5 Z"/></g>
<g><path style="opacity:0.996" fill="#eab58c" d="M 227.5,575.5 C 231.295,576.898 234.961,578.564 238.5,580.5C 235.909,589.257 230.575,595.757 222.5,600C 193.278,611.921 167.278,607.088 144.5,585.5C 143.952,583.606 142.952,581.94 141.5,580.5C 147.198,578.099 152.865,575.599 158.5,573C 159.667,571.833 160.833,570.667 162,569.5C 162.813,564.185 163.479,558.852 164,553.5C 179.146,567.828 196.646,571.828 216.5,565.5C 218.212,570.875 221.879,574.208 227.5,575.5 Z"/></g>
<g><path style="opacity:0.996" fill="#eab58b" d="M 433.5,556.5 C 449.074,569.185 466.408,572.018 485.5,565C 489.792,563.604 493.292,561.104 496,557.5C 497.257,566.837 497.424,576.17 496.5,585.5C 477.277,600.017 457.277,601.184 436.5,589C 435,587.5 433.5,586 432,584.5C 431.208,575.086 431.708,565.753 433.5,556.5 Z"/></g>
<g><path style="opacity:0.996" fill="#eab58b" d="M 976.5,547.5 C 989.202,563.68 1005.87,570.846 1026.5,569C 1031.3,568.22 1035.63,566.386 1039.5,563.5C 1042.69,573.128 1040.36,580.961 1032.5,587C 1010.71,593.759 992.206,588.592 977,571.5C 976.5,563.507 976.334,555.507 976.5,547.5 Z"/></g>
<g><path style="opacity:0.996" fill="#4d505d" d="M 555.5,594.5 C 548.043,601.953 539.71,608.287 530.5,613.5C 530.44,612.957 530.107,612.624 529.5,612.5C 525.057,615.577 521.724,614.577 519.5,609.5C 521.149,607.35 522.982,605.35 525,603.5C 525.167,602 525.333,600.5 525.5,599C 524.38,591.669 522.88,584.503 521,577.5C 532.264,583.549 543.764,589.215 555.5,594.5 Z"/></g>
<g><path style="opacity:0.996" fill="#4d505d" d="M 405.5,615.5 C 394.911,609.712 385.244,602.712 376.5,594.5C 386.852,588.55 397.352,582.883 408,577.5C 407.017,585.134 405.184,592.634 402.5,600C 404.353,603.867 407.02,607.201 410.5,610C 408.627,611.704 406.96,613.537 405.5,615.5 Z"/></g>
<g><path style="opacity:0.996" fill="#4e515e" d="M 978.5,626.5 C 971.468,624.935 964.802,622.602 958.5,619.5C 958.938,619.565 959.272,619.399 959.5,619C 957.998,618.417 956.665,617.584 955.5,616.5C 957.817,613.683 960.317,611.016 963,608.5C 964.558,606.231 964.724,603.898 963.5,601.5C 959.97,600.485 956.803,598.819 954,596.5C 954.214,585.967 955.88,575.634 959,565.5C 963.6,562.737 967.766,559.403 971.5,555.5C 972.198,567.181 973.031,578.848 974,590.5C 976.59,602.02 979.09,613.52 981.5,625C 980.263,625.232 979.263,625.732 978.5,626.5 Z"/></g>
<g><path style="opacity:0.994" fill="#4e515e" d="M 949.5,615.5 C 936.456,609.451 925.123,601.118 915.5,590.5C 927.182,584.574 938.682,578.241 950,571.5C 948.681,580.093 948.014,588.759 948,597.5C 949.588,602.052 952.755,604.885 957.5,606C 954.246,608.747 951.58,611.914 949.5,615.5 Z"/></g>
<g><path style="opacity:0.996" fill="#4e515e" d="M 1066.5,616.5 C 1060.15,619.733 1053.48,622.4 1046.5,624.5C 1046.36,603.461 1046.36,582.461 1046.5,561.5C 1050.42,564.043 1054.25,566.71 1058,569.5C 1061.04,578.272 1063.87,587.105 1066.5,596C 1064.35,599.488 1061.51,602.321 1058,604.5C 1057.83,605.333 1057.67,606.167 1057.5,607C 1059.28,611.278 1062.28,614.445 1066.5,616.5 Z"/></g>
<g><path style="opacity:0.986" fill="#4d505d" d="M 1100.5,591.5 C 1093.66,599.35 1085.66,605.683 1076.5,610.5C 1074.16,611.086 1071.99,612.086 1070,613.5C 1068.27,611.389 1066.43,609.389 1064.5,607.5C 1069.15,605.032 1071.48,601.198 1071.5,596C 1070.09,588.026 1067.76,580.359 1064.5,573C 1075.05,576.765 1085.38,581.432 1095.5,587C 1097.69,588.067 1099.36,589.567 1100.5,591.5 Z"/></g>
<g><path style="opacity:0.996" fill="#1f202d" d="M 227.5,575.5 C 230.489,575.823 233.655,575.823 237,575.5C 237.383,577.037 238.216,578.37 239.5,579.5C 246.621,581.231 252.954,584.231 258.5,588.5C 253.28,586.307 248.114,583.974 243,581.5C 237.495,596.335 226.995,605.502 211.5,609C 181.119,615.717 155.952,607.217 136,583.5C 128.109,586.529 120.609,590.196 113.5,594.5C 113.953,593.542 114.619,592.708 115.5,592C 115.167,591.667 114.833,591.333 114.5,591C 116.402,590.801 117.902,589.967 119,588.5C 123.312,588.558 126.479,586.391 128.5,582C 130.557,581.695 132.557,581.695 134.5,582C 133.228,580.754 132.895,579.587 133.5,578.5C 134.793,580.217 136.626,581.884 139,583.5C 139.333,583.167 139.667,582.833 140,582.5C 141.167,584.333 142.333,586.167 143.5,588C 144.167,588.667 144.833,588.667 145.5,588C 144.748,587.329 144.414,586.496 144.5,585.5C 167.278,607.088 193.278,611.921 222.5,600C 230.575,595.757 235.909,589.257 238.5,580.5C 234.961,578.564 231.295,576.898 227.5,575.5 Z"/></g>
<g><path style="opacity:0.995" fill="#4e505d" d="M 519.5,618.5 C 513.615,621.798 507.282,624.131 500.5,625.5C 502.3,605.84 502.966,586.173 502.5,566.5C 506.421,569.043 510.254,571.71 514,574.5C 516.672,582.351 518.839,590.351 520.5,598.5C 518.021,602.477 515.021,605.977 511.5,609C 514.041,612.366 516.707,615.532 519.5,618.5 Z"/></g>
<g><path style="opacity:0.992" fill="#4f525f" d="M 413.5,619.5 C 412.29,619.068 411.29,618.401 410.5,617.5C 413.558,615.444 415.891,612.777 417.5,609.5C 414.943,606.421 412.109,603.421 409,600.5C 409.757,590.724 412.257,581.39 416.5,572.5C 419.833,569.833 423.167,567.167 426.5,564.5C 427.027,583.779 427.361,603.113 427.5,622.5C 423.187,621.674 419.02,620.34 415,618.5C 414.235,618.57 413.735,618.903 413.5,619.5 Z"/></g>
<g><path style="opacity:0.989" fill="#fad53c" d="M 821.5,594.5 C 790.258,623.74 753.258,635.24 710.5,629C 683.866,623.855 661.199,611.689 642.5,592.5C 648.279,588.103 654.613,584.436 661.5,581.5C 673.143,594.64 686.477,605.806 701.5,615C 745.381,634.595 778.881,623.429 802,581.5C 808.824,585.485 815.324,589.818 821.5,594.5 Z"/></g>
<g><path style="opacity:0.996" fill="#fad53d" d="M 258.5,588.5 C 264.477,592.801 270.477,597.135 276.5,601.5C 245.786,626.098 210.786,635.264 171.5,629C 148.001,624.253 127.667,613.753 110.5,597.5C 111.694,596.728 112.694,595.728 113.5,594.5C 120.609,590.196 128.109,586.529 136,583.5C 155.952,607.217 181.119,615.717 211.5,609C 226.995,605.502 237.495,596.335 243,581.5C 248.114,583.974 253.28,586.307 258.5,588.5 Z"/></g>
</svg>
